<svg width="224" height="79" viewBox="0 0 224 79" fill="none" xmlns="http://www.w3.org/2000/svg">
<path d="M116.2 40.72C116.2 40.88 116.12 41.44 115.92 41.68C115.8 41.8 115.24 42.08 114.92 42.16C114.52 42.24 113.72 42.4 113.56 42.4C113.44 42.4 111.92 41.88 111.76 41.88C111.64 41.88 111.52 42.16 111.32 42.28C111.2 42.36 110.84 42.4 110.64 42.56C110.12 42.92 109.56 43.24 109.24 43.76C109.08 44.08 109.04 44.92 108.84 45.28C108.64 45.72 108.36 46.08 107.8 46.96C107.44 47.52 106.72 47.96 106.56 48.52C106.52 48.64 106.6 48.84 106.6 49.04C106.56 49.16 106.28 49.36 106.28 49.52C106.28 49.64 106.44 49.68 106.52 49.8C106.64 49.68 106.64 49.36 106.88 49.28C107.08 49.16 107.44 49.04 107.6 49.04C107.72 49.04 107.92 49.24 108.12 49.28C108.28 49.32 108.6 49.24 108.8 49.32C109.28 49.52 109.72 49.92 110.08 50.32C110.52 50.8 110.84 51.4 111.2 51.96C111.16 52.08 110.96 52.28 110.96 52.4C110.96 52.52 111.2 52.8 111.24 53.08C111.32 53.32 111.16 53.6 111.16 53.92C111.8 54.6 111.96 54.84 111.96 55.4C111.96 55.56 111.76 56.24 111.72 56.6C110.92 57.32 110.6 57.6 109.88 57.6C109.72 57.6 108.92 57.64 108.8 57.64C108.64 57.64 107.92 57.48 107.72 57.48C107.04 57.48 104.84 58.4 104.56 58.44C103.8 58.56 102.64 58.6 101.72 58.84C101.44 58.92 100.56 59.48 100.4 59.48C100.28 59.48 99.84 59.2 99.48 59.08C99.36 59.04 99.12 59.08 98.96 59.04C98.84 59.04 98.72 58.88 98.56 58.68C98.4 58.44 98.32 58.04 98.24 57.76C98.08 57.32 97.68 56.76 97.68 56.36C97.68 56.24 97.84 55 98.04 54.36C98.08 54.2 98.2 54.12 98.28 54C98.4 53.8 98.44 53.56 98.44 53.36C98.88 52.8 99.48 52.04 99.88 51.4C99.96 51.32 99.96 51.12 100.04 51.04C100.8 50.36 101.6 49.4 102.32 48.76C102.68 48.44 103.88 47.48 104.52 46.88C104.68 46.72 105.04 46.68 105.28 46.52C105.6 46.24 106.08 46 106.36 45.72C106.8 45.32 107.16 44.64 107.6 44.16C108.32 43.32 109.28 42.36 110.16 41.44C110.24 41.36 110.36 41.16 110.36 41.04C110.28 41 110.36 41 110.2 41C110.04 41 108.6 41.44 107.8 41.6C105.64 42 104.08 41.84 101.92 42.76C101.72 42.84 101.48 43.04 101.2 43.24C100.72 43.56 100.16 43.8 99.6 44C98.68 44.36 97.04 44.6 95.92 45.48C95.44 45.8 94.28 46 94.12 46H93.72C93.6 46 93.08 45.96 92.88 45.72C92.68 45.48 92.72 45 92.56 44.72C92.48 44.6 92.16 44.48 92.16 44.28C92.16 43.88 92.76 43.92 92.72 43.24C93.04 43.2 93.36 42.84 93.72 42.76C94.24 42.6 94.92 42.56 95.44 42.36C96.52 41.88 97.52 41.48 98.56 41.12C98.64 41.08 98.64 41 98.68 40.96C98.96 40.88 99.24 40.76 99.48 40.68C99.96 40.52 100.92 40.36 101.36 39.72C101.68 39.28 101.96 38.64 102.28 38.2C102.72 37.48 103.12 37.04 103.52 36.36C103.64 36.16 103.84 35.84 103.96 35.52C103.72 35.52 103.68 35.64 103.52 35.72C103.16 35.8 102.48 35.84 102.32 35.84C102.2 35.84 102.08 35.72 101.96 35.72C101.84 35.72 101.6 36.04 101.44 36.04C101.28 36.04 101.2 35.84 101.04 35.84C100.88 35.84 100.96 35.92 100.8 35.92C100.48 35.92 100.52 35.36 100 35.36C99.88 35.36 99.8 35.4 99.68 35.4C99.52 35.4 99.12 34.68 98.96 34.68C98.8 34.68 98.8 34.8 98.76 34.8C98.64 34.56 98.24 34.2 98.4 34.04C98.4 33.96 98.24 34.04 98.16 34C97.84 33.76 97.72 33.16 97.6 32.76C97.48 32.28 97.36 31.68 97.2 31.16C96.92 30.4 96.72 29.68 96.72 29.04C96.72 28 96.96 27.52 97.12 26.84C97.4 25.56 98.4 24.52 99.12 23.52C99.32 23.28 100.16 23 100.44 22.56C100.64 22.68 100.8 22.96 101 23.04C101.24 23.16 101.52 23.2 101.72 23.28C101.8 23.28 101.84 23.48 101.96 23.56C102.6 24.16 102.52 24.52 102.72 25C102.76 25.16 102.72 25.4 102.72 25.56C102.72 26.04 102.68 25.8 102.44 26.72C102.2 27.68 102.12 29.48 102.12 29.64C102.12 29.76 102.2 30.32 102.28 30.6C102.36 30.8 102.4 31.2 102.56 31.48C102.6 31.6 102.8 31.6 102.96 31.6C103.68 31.6 107.4 30.44 107.56 30.36C108.28 30.04 109.84 29.16 109.92 29.16C110.04 29.16 110.52 29.28 110.72 29.44C111.6 30.16 111.88 29.68 112.56 30.24C112.8 30.44 113 30.84 113.28 31.08V31.48C113.2 31.56 112.96 31.6 112.84 31.68C112.68 31.8 112.48 32.16 112.28 32.28C111.44 32.68 111.12 33.92 110.04 34.2C109.84 34.28 109.52 34.6 109.28 34.76C108.8 35.12 108.44 35.72 108.4 36.08C108.36 36.52 108.24 37 107.92 37.56C107.76 37.76 107.84 38.12 107.84 38.44C107.92 38.56 108.04 38.56 108.16 38.56C108.32 38.56 112.52 38.12 112.68 38.12C113.56 38.12 114.6 38.36 115.44 39.56C115.52 39.64 115.76 39.8 115.84 39.92C116 40.16 116.2 40.56 116.2 40.72ZM107.2 53.88C107.2 53.44 106.8 52.6 106.6 52.44C106.48 52.4 106.32 52.4 106.28 52.36C106.08 52.2 105.92 52.2 105.72 52.12C105.68 52 105.68 51.84 105.6 51.76C105.44 51.6 105.04 51.52 104.92 51.52C104.76 51.52 104.52 51.72 104.4 51.8C104 52.2 103.16 53.12 102.64 53.68C102.28 54.04 101.96 54.88 102 55.24C102.16 55.36 102.84 55.64 103.16 55.64C103.32 55.64 104.28 55.48 104.8 55.32C105.24 55.16 105.84 54.8 106.28 54.52C106.48 54.44 107.2 54.24 107.2 53.88ZM141.794 26C141.794 26.12 141.594 26.6 141.394 27.24C140.994 27.72 140.274 27.6 139.874 27.8C139.594 27.92 137.634 29.64 136.914 29.64H136.594C136.954 28.84 138.034 28.04 138.074 27.4C137.514 27.08 136.994 26.72 136.434 26.6C135.754 26.48 134.834 26.48 134.194 26.4C133.794 26.32 133.274 26.12 132.794 26C132.274 25.88 131.634 25.88 131.074 25.76C130.834 25.72 130.314 25.12 130.314 24.84C130.314 24.68 130.514 24.44 130.354 24C130.474 23.96 130.714 24 130.874 24C130.994 24 131.114 23.8 131.274 23.8C131.434 23.8 132.154 23.92 132.274 23.92C132.434 23.92 133.234 23.8 133.394 23.8C133.514 23.8 133.954 24.08 134.314 24.2C134.914 24.44 135.634 24.56 136.314 24.64C137.034 24.76 138.114 24.92 138.794 25.2C138.954 25.28 139.194 25.24 139.354 25.24C139.514 25.24 139.874 25.16 140.034 25.16C140.194 25.16 141.114 25.36 141.554 25.56C141.634 25.6 141.794 25.88 141.794 26ZM146.794 40.12C146.794 41.2 145.714 41.72 144.834 41.72C144.674 41.72 144.834 41.64 144.674 41.64C144.514 41.64 143.954 41.96 143.634 42.04L143.114 41.92C143.434 41.8 143.754 41.68 144.034 41.44C143.114 40.68 141.914 40.16 140.954 39.76C140.794 39.68 140.394 39.72 140.074 39.64C138.914 39.4 138.594 39.48 137.874 39.48C137.714 39.48 137.314 39.6 137.114 39.64C136.794 39.72 136.234 39.8 135.674 40C134.994 40.24 134.674 40.92 134.394 41.28C133.874 41.8 133.154 42.12 132.674 42.6C132.274 42.96 131.754 43.52 131.234 44.08C131.034 44.28 130.994 44.72 130.674 44.92C130.114 45.28 129.514 45.44 128.954 45.6C128.914 45.6 128.794 45.68 128.634 45.68C128.394 45.68 128.194 45.48 128.194 45.24C128.194 45.08 128.234 45.04 128.274 44.96C128.314 44.6 128.274 44.16 128.314 43.8C128.354 43.64 128.514 43.4 128.594 43.24C129.074 42.2 129.594 40.6 130.794 39.36C131.154 38.96 131.754 38.2 132.074 37.88C132.954 37 133.954 35.8 134.354 35.32C134.634 35 134.914 34.68 135.034 34.28C135.034 34.28 135.074 34.24 134.954 34.24C134.834 34.24 134.154 34.64 133.754 34.72C133.554 34.76 133.074 34.88 132.954 34.88C132.794 34.88 132.834 34.8 132.674 34.8C131.874 34.8 131.754 35.72 130.914 35.72H130.394C129.954 35.72 129.194 35.24 129.194 34.8C129.194 34.68 129.274 34.2 129.394 34C129.434 33.92 129.634 33.88 129.754 33.8C129.874 33.72 129.914 33.52 129.994 33.48C130.114 33.36 130.434 33.44 130.554 33.32C131.434 32.52 132.194 32.6 132.874 32.24C133.234 32.04 133.634 31.84 133.994 31.72C135.794 31.04 138.234 30.2 140.274 30.12C140.474 30.12 141.034 29.96 141.394 29.92C141.754 29.88 142.474 29.88 142.634 29.88C143.034 29.88 143.794 30.76 144.034 31.2C144.074 31.36 144.114 31.6 144.114 31.76C144.114 31.88 143.914 32.08 143.794 32.32C143.634 32.6 143.474 33.16 143.074 33.6C142.874 33.88 142.434 34.36 142.114 34.6C141.714 34.88 141.114 34.8 140.714 35C140.354 35.2 139.794 35.88 139.514 36.32C140.394 36.4 141.714 36.72 142.834 36.96C142.994 36.96 143.194 37.08 143.394 37.12C143.594 37.2 143.994 37.48 144.274 37.6C145.234 37.92 146.194 38.76 146.754 39.72C146.794 39.8 146.794 39.96 146.794 40.12ZM151.314 47.48C151.314 47.64 151.354 47.8 151.234 47.92C150.914 48.28 150.194 48.6 150.034 48.6C149.914 48.6 149.114 48.36 148.594 48.28C148.434 48.24 148.074 48.24 147.754 48.24C147.514 48.24 147.194 48.12 146.874 48.12C145.994 48.16 145.754 48 145.274 48C145.154 48 143.594 48.08 142.714 48.2C142.354 48.24 141.634 48.48 141.514 48.48C141.354 48.48 140.434 48.24 140.274 48.24C140.154 48.24 139.034 48.36 138.434 48.52C138.314 48.52 138.234 48.8 138.074 48.92C137.874 49.04 137.314 49.08 136.994 49.2C136.834 49.24 136.674 49.48 136.474 49.48C136.354 49.48 136.474 49.44 136.354 49.44C136.194 49.44 135.634 49.4 134.874 49.56C134.114 49.72 132.714 50.24 132.554 50.24C132.394 50.24 131.154 50.12 130.994 50.12C130.874 50.12 130.434 50.4 130.074 50.52C129.394 50.76 128.754 51 128.034 51.32C127.914 51.36 125.554 52.8 124.954 52.8C124.834 52.8 124.514 52.48 124.354 52.48C124.194 52.48 124.274 52.48 124.234 52.52C124.114 52.16 123.914 51.56 123.914 51.4C123.914 51.2 125.554 49 125.954 48.2C126.194 48.28 125.954 48.48 126.434 48.48C126.594 48.48 127.794 48.44 128.314 48.28C128.594 48.2 129.354 47.6 129.874 47.4C130.354 47.2 131.154 47.12 131.674 46.84C132.154 46.64 132.954 45.76 133.234 45.32C133.714 44.68 134.714 43.56 135.034 43.04C135.394 42.48 135.954 42.08 136.514 41.56C136.674 41.44 136.954 41.4 137.114 41.4C137.754 41.4 137.874 42.08 138.194 42.08C138.354 42.08 138.394 41.96 138.514 41.96C138.514 42.16 138.514 42.52 138.594 42.72C138.634 42.88 138.834 43.04 138.834 43.2C138.834 43.36 138.674 43.48 138.634 43.6C138.514 44.48 138.074 44.92 137.834 45.48C137.874 45.52 137.874 45.56 137.994 45.56C138.154 45.56 139.634 45.2 140.474 45.08C143.634 44.68 143.994 44.76 146.234 44.76C146.354 44.76 147.994 45.08 148.874 45.24C149.034 45.28 149.234 45.48 149.434 45.48C150.994 45.6 151.314 46.68 151.314 47.48ZM148.074 54.44C147.874 54.6 147.714 54.96 147.554 55.16C147.474 55.28 147.314 55.32 147.234 55.44C147.234 55.56 147.274 55.76 147.274 55.88C146.954 55.96 146.394 56.28 146.234 56.28C146.074 56.28 145.314 56.08 145.194 56.08C144.514 56.08 144.114 56.12 143.274 56.32C143.154 56.36 142.834 56.32 142.674 56.36C141.154 56.76 139.794 57.16 138.194 57.16C137.954 57.16 137.154 57.32 136.994 57.32C136.874 57.32 136.634 57.24 136.474 57.24C136.354 57.24 136.154 57.44 135.994 57.44C135.834 57.44 134.074 57.24 133.914 57.24C133.434 57.24 132.954 57.36 132.634 57.52C132.394 57.64 132.074 58 131.914 58C131.754 58 131.474 57.76 131.314 57.76C131.194 57.76 130.914 57.92 130.554 58C130.514 57.8 130.434 57.52 130.354 57.36C130.114 57.04 129.914 56.96 129.914 56.84C129.914 56.68 130.114 56.08 130.234 55.72C130.634 54.2 131.754 52.16 132.994 50.36C133.314 50.44 133.754 50.4 134.034 50.56C135.114 51.4 134.954 52.84 134.754 53.96C135.314 54.04 136.314 53.92 136.474 53.92C136.554 53.92 139.394 53.32 141.034 53.12C141.434 53.08 142.274 53.08 142.474 53.08C142.594 53.08 143.394 53.04 143.914 53.12C145.274 53.32 146.714 53.72 148.074 53.96V54.44ZM182.868 32.48C182.868 32.64 182.628 33.76 182.468 34.32C182.388 34.76 182.028 35.16 181.748 35.6C181.628 35.76 181.628 36 181.468 36.16C181.268 36.36 180.948 36.48 180.748 36.8C180.428 37.28 179.748 37.88 179.308 38.12C179.148 38.2 179.028 38.56 178.788 38.68C178.508 38.88 178.148 39.16 177.828 39.48C177.748 39.56 177.748 39.84 177.628 39.92C177.227 40.16 176.388 40.64 176.228 40.64C175.908 40.64 175.788 40.24 175.788 40.12C175.788 39.96 175.948 39.28 176.028 39.04C176.028 38.96 175.908 38.72 175.988 38.56C176.068 38.36 176.268 38.12 176.307 37.84C177.108 34.84 177.227 31.88 177.227 29.08C177.227 28.92 177.348 28.68 177.388 28.52C177.468 28.44 177.348 28.2 177.388 28.04C177.388 27.96 177.508 27.84 177.548 27.72C177.548 27.48 177.508 27.24 177.588 27.08C177.908 26.36 177.828 25.92 177.828 25.36C177.868 25.12 178.028 24.68 178.148 24.36C178.228 24.2 178.148 23.92 178.148 23.64C178.148 23.52 178.348 23.4 178.428 23.24C178.707 22.84 178.948 22.52 179.268 22.44C179.348 22.4 179.348 22.4 179.508 22.4C179.668 22.4 180.748 22.4 181.228 22.64C181.348 22.72 181.508 23.08 181.628 23.24C181.948 23.72 181.988 23.8 181.988 24.28C181.988 24.44 181.748 25.44 181.748 25.6C181.748 25.72 181.948 26.08 181.988 26.32C182.068 27 182.108 27.8 182.268 28.52C182.308 28.68 182.548 28.96 182.588 29.24C182.628 29.44 182.548 29.92 182.588 30.24C182.588 30.44 182.668 30.68 182.708 30.88C182.748 30.92 182.828 30.92 182.868 31V32.48ZM174.308 25.48C174.308 25.92 173.668 26.8 173.468 27.28C173.428 27.28 173.308 27.4 173.268 27.48C173.268 27.64 173.068 27.8 172.988 28.04C172.868 28.6 172.668 29.24 172.548 29.88C172.508 30.12 172.588 30.6 172.508 30.88C172.468 31.16 172.268 31.44 172.188 31.8C172.028 32.44 171.668 33.72 171.428 34.32C171.308 34.56 171.348 35 171.268 35.36C171.348 35.44 171.228 35.44 171.388 35.44C171.548 35.44 172.148 35.12 172.508 34.96C172.588 35.04 172.588 35 172.588 35.16C172.588 35.52 171.628 36.44 171.548 36.56C171.348 36.76 171.148 37 170.988 37.32C170.868 37.44 170.948 37.8 170.868 38C170.828 38.16 170.628 38.44 170.628 38.64C170.468 38.72 169.948 39.08 169.708 39.08C169.548 39.08 169.708 39.04 169.548 39.04C169.428 39.04 169.348 39.2 169.228 39.2C169.028 39.24 168.828 39.24 168.668 39.32C168.188 39.56 167.828 40.08 167.388 40.4C167.188 40.52 166.668 40.56 166.508 40.56C166.388 40.56 166.188 40.36 166.028 40.36C165.868 40.36 165.068 40.56 164.908 40.56C164.748 40.56 164.788 40.36 164.628 40.36H164.148C164.068 40.6 164.148 40.84 164.068 41.12C164.028 41.36 163.828 41.72 163.708 41.92C163.588 42.12 163.188 42.52 163.068 42.52C162.908 42.52 162.828 42.48 162.708 42.4C162.468 42.12 162.108 41.6 161.788 41.32C161.748 41.32 161.548 41.24 161.468 41.16C160.988 40.8 160.588 40.08 160.428 39.52C160.028 37.84 159.588 34.44 159.588 34.28C159.588 34.16 159.708 33.92 159.708 33.8C159.868 32.88 160.268 31.56 160.668 30.68C160.868 30.2 161.028 29.36 161.268 28.6C161.348 28.4 161.468 28.16 161.588 28.04C161.868 27.76 162.508 27.16 162.668 27.16C162.788 27.16 162.748 27.32 162.908 27.32C162.988 27.32 163.468 27.12 163.548 26.96C163.548 26.96 163.628 26.92 163.708 26.84C163.828 27.04 163.908 27.4 163.908 27.56C163.908 27.68 163.708 28.04 163.668 28.24C163.548 28.96 163.708 29.8 163.628 30.64C163.588 31.08 163.108 31.88 163.108 32.04V32.52C163.188 32.52 163.388 32.56 163.548 32.56C163.668 32.56 164.108 32.28 164.428 32.16C165.228 31.84 166.188 31.88 166.508 31.36C166.588 31.24 166.468 31 166.788 31C166.947 31 166.828 31.04 166.988 31.04C167.188 31.04 167.188 30.84 167.148 30.68C167.628 30.76 167.668 30.04 167.668 29.88C167.868 28.36 168.548 28.24 169.388 27.04C169.468 26.92 169.948 26.84 170.028 26.76C170.428 26.44 171.028 25.96 171.468 25.56C171.628 25.4 172.988 24.96 173.348 24.96C173.828 24.96 174.308 25.04 174.308 25.48ZM167.468 37.12C167.228 35.84 166.788 35.04 166.908 34.16H166.668C165.948 34.28 165.228 34.44 164.268 34.72C163.948 34.8 163.628 34.72 163.308 34.8C163.268 34.72 162.988 34.72 162.988 34.72V35.4C162.988 35.56 162.788 36.68 162.788 36.84C162.788 37.12 163.028 38.96 163.628 38.96C163.908 38.96 164.668 38.28 164.708 38.24C165.068 38.08 165.388 37.88 165.668 37.72C166.228 37.4 166.947 37.24 167.468 37.12ZM178.548 42.6C178.548 42.84 178.228 43.24 177.988 43.32C175.788 44.2 174.228 44.4 172.228 45.6C171.988 45.76 171.508 45.88 171.348 45.88H171.068C171.348 45.52 173.108 43.68 173.108 43.32C173.108 43.08 172.708 43.12 172.508 43.08C171.108 42.64 170.908 42.48 170.068 42.48C169.948 42.48 168.388 42.72 168.228 42.72C167.748 42.72 167.908 42.64 167.548 42C167.708 41.84 167.948 41.48 168.268 41.36C169.588 40.8 170.628 40.56 171.908 40.56C172.068 40.56 173.508 40.8 173.668 40.8C173.788 40.8 173.828 40.76 173.988 40.76C174.148 40.76 175.828 41.24 175.988 41.24C176.148 41.24 176.148 41.2 176.307 41.2C176.468 41.2 177.588 41.72 178.228 42.04C178.388 42.12 178.548 42.44 178.548 42.6ZM184.668 57C184.668 57.36 184.628 57.92 184.068 57.92C183.948 57.92 183.788 57.8 183.668 57.8C183.548 57.8 183.308 58.08 183.188 58.24C182.908 58.24 182.548 58.32 182.388 58.32C181.748 58.32 181.268 57.88 180.548 57.2C180.468 57.12 180.188 57.16 180.028 57.04C177.988 54.76 176.428 54.32 174.388 54.32C174.228 54.32 173.988 54.28 173.868 54.4C173.228 54.88 172.508 55.76 171.908 56.36C171.748 56.48 171.708 56.8 171.508 57.04C171.068 57.52 170.668 58.04 170.268 58.48C170.188 58.56 169.908 58.56 169.748 58.6C169.548 58.64 169.188 58.8 168.988 58.96C168.748 59.12 168.348 59.72 168.188 59.72C168.028 59.72 168.108 59.6 167.948 59.6C167.788 59.6 167.788 59.72 167.628 59.72C167.268 59.72 167.188 58.72 167.148 58.6C167.108 58.56 166.988 58.44 166.908 58.4C166.828 58.28 166.788 57.88 166.788 57.72C166.788 57.44 167.108 56 167.428 55.64C167.508 55.56 167.748 55.36 167.828 55.24C169.188 53.12 171.588 49.96 174.148 48.24C174.068 48.12 174.148 48.16 173.988 48.16C173.868 48.16 172.068 49 170.988 49.44C169.508 50.12 168.628 50.92 167.148 51.8C166.868 51.96 166.428 52.44 166.108 52.64C165.948 52.76 165.668 52.96 165.467 53.04C165.108 53.16 164.508 53.32 164.348 53.32C164.188 53.32 164.188 53.16 164.108 53.12C163.948 52.8 163.748 52.44 163.628 52.08C163.548 51.88 163.548 51.44 163.548 51.28C163.548 51.12 163.908 50.88 164.028 50.52C164.108 50.32 164.068 50 164.188 49.8C164.428 49.76 164.828 49.64 164.988 49.64C165.108 49.64 165.148 49.68 165.308 49.68C165.467 49.68 166.228 49.36 166.548 49.2C167.668 48.64 168.908 48.08 170.108 47.6C172.348 46.6 174.748 45.76 177.188 45.24C177.348 45.2 177.548 44.92 177.748 44.84C178.108 44.68 178.788 44.48 178.948 44.48C179.108 44.48 179.348 44.68 179.468 44.68C179.628 44.68 179.788 44.6 179.948 44.6C180.508 44.6 181.908 45.24 181.908 45.28C181.988 45.36 182.068 45.52 182.068 45.68C182.068 45.96 181.628 46.76 181.588 46.8C181.308 47.04 180.748 47.28 180.468 47.44C179.748 47.8 179.028 48.32 178.348 48.8C178.108 49.04 177.668 49.48 177.428 49.64C177.108 49.84 176.788 50.28 176.468 50.68C176.588 50.96 177.028 50.96 177.348 51.04C177.388 51.08 177.548 51.2 177.668 51.28C178.868 51.72 179.908 52.44 181.308 53.16C181.348 53.2 181.388 53.24 181.468 53.28C181.708 53.44 181.988 53.48 182.228 53.6C182.348 53.64 182.388 53.84 182.548 53.92C183.788 54.64 184.668 56 184.668 57ZM215.741 23.92C215.741 24.04 215.741 24.92 215.661 25.36C215.581 25.8 215.261 26.44 215.181 26.96C215.061 27.96 214.861 29.04 214.581 30.16C214.341 31.24 213.821 32.56 213.821 33.76C213.821 35.08 214.061 35.92 214.461 37.64C214.501 37.88 214.621 38.32 214.621 38.48C214.621 38.56 214.461 39.24 214.301 39.24C214.141 39.24 214.301 39.2 214.181 39.2C214.061 39.2 214.101 39.36 214.061 39.48C213.781 40.16 213.181 39.92 212.941 40.32C212.861 40.48 212.821 40.72 212.821 40.96C212.781 40.92 212.621 40.64 212.461 40.64C212.221 40.64 212.101 41.08 211.821 41.04C211.701 40.88 211.621 40.56 211.501 40.4C211.261 40.08 210.901 39.72 210.781 39.36C210.621 38.72 210.221 37.08 210.101 36.08C210.061 35.52 210.021 34.52 210.021 34.4C210.021 34.28 210.221 33.56 210.301 33.08C210.381 32.52 210.421 31.76 210.501 31.2C210.581 30.8 210.701 30.32 210.781 29.92C210.981 29.12 211.581 27.64 211.741 26.64C211.741 26.48 211.701 26.24 211.621 26C211.741 25.64 211.981 25.28 212.181 24.96C212.221 24.92 212.221 24.76 212.221 24.68C212.261 24.64 212.341 24.6 212.341 24.56C212.541 24.2 212.501 23.84 213.021 23.44C213.101 23.36 213.261 23.36 213.341 23.28C213.581 23.04 213.941 22.84 214.221 22.56C214.541 22.8 215.221 23 215.541 23.28C215.621 23.4 215.741 23.8 215.741 23.92ZM209.021 32.96C209.021 33.32 207.781 34.48 207.461 34.72C207.261 34.88 206.821 35 206.541 35.16C206.301 35.36 206.061 35.76 205.821 35.92C205.421 36.24 204.901 36.84 204.581 37.2C203.421 38.64 201.501 40.24 200.541 41.52C200.381 41.76 200.021 42 199.821 42.2C199.181 42.76 198.581 43.52 197.941 44.28C197.821 44.36 197.621 44.48 197.501 44.56C197.101 44.84 196.701 45.32 196.181 45.64C195.861 45.8 195.221 45.92 195.061 45.92C194.941 45.92 194.221 45.52 194.061 45.52C193.941 45.52 194.061 45.6 193.901 45.6C193.621 45.6 193.621 45.36 193.621 45.24C193.621 44.92 193.781 44.76 194.021 44.4C194.621 43.64 195.381 42.92 195.981 42.12C196.381 41.6 197.141 40.76 197.501 40.44C198.261 39.72 199.021 38.88 199.661 38.24C200.781 37.08 202.501 35.24 203.421 34C203.181 33.8 202.901 33.8 202.581 33.8C201.261 33.8 200.701 34.2 200.461 34.2C200.301 34.2 200.301 34.08 200.261 34.04C200.061 34 199.901 34 199.741 34C199.621 34 199.421 34.24 199.261 34.32C199.101 34.4 198.861 34.52 198.621 34.56C198.541 34.6 198.501 34.68 198.461 34.72C197.701 34.88 196.861 35.48 196.061 35.92C195.701 36.12 195.141 36.24 194.781 36.36C194.581 36.44 194.101 36.56 193.981 36.56C193.861 36.56 192.941 36.16 192.541 35.92C192.421 35.88 192.301 35.6 192.101 35.52C191.901 35.44 191.581 35.36 191.341 35.24C191.421 35 191.221 34.6 190.941 34.52C190.981 34.32 190.941 34.12 191.021 33.96C191.381 33.32 192.701 32.8 193.341 32.64C193.941 32.48 194.461 32.2 195.061 32.04C196.141 31.76 197.261 31.4 198.421 31.12C198.821 31.04 201.301 30.72 202.101 30.72C202.261 30.72 202.421 30.8 202.581 30.8C202.781 30.8 203.061 30.84 203.301 30.88C204.141 31 205.061 31.08 205.901 31.2C206.021 31.2 206.221 31.28 206.381 31.28C206.501 31.28 206.621 31.2 206.781 31.2C207.541 31.2 208.541 31.48 208.941 32.16C208.981 32.24 209.021 32.84 209.021 32.96ZM223.701 54.72C223.581 54.76 223.421 54.84 223.341 55.04C223.301 55.12 223.381 55.32 223.341 55.44C223.221 55.56 223.021 55.56 222.861 55.6C222.741 55.6 222.581 55.84 222.461 55.84C220.741 56.04 217.461 56.24 217.301 56.24C215.141 56.24 214.701 56.24 213.261 56.4C212.581 56.48 211.821 56.76 210.941 56.96C210.461 57.08 209.941 57.28 209.381 57.44C208.661 57.64 207.501 57.92 206.661 58.12C206.461 58.16 206.101 58.12 205.781 58.2C204.301 58.68 204.461 59.04 203.701 59.04C203.421 59.04 202.581 58.56 202.461 58.4C202.301 58.2 202.221 57.72 202.261 57.4C202.301 57.36 202.301 57.28 202.341 57.24C202.341 57.2 202.221 57.16 202.221 57.04L202.301 56.96C202.341 56.88 202.301 56.8 202.261 56.76C202.221 56.64 202.221 56.44 202.261 56.32C202.341 56.12 202.541 55.8 202.741 55.6C202.861 55.48 203.181 55.44 203.341 55.4C203.501 55.32 203.661 55.12 203.781 55.12C203.941 55.12 204.181 55.16 204.301 55.16C204.541 55.16 206.461 54.48 206.741 54.32C207.021 54.16 207.781 53.64 207.861 53.32C207.821 53.28 207.781 53.24 207.701 53.2C207.381 53.08 206.781 53 206.661 53C206.501 53 205.981 53.04 205.861 53.04C205.701 53.04 204.741 52.84 204.581 52.84C203.501 52.84 202.661 53.28 202.021 53.32C201.781 53.36 201.421 53.36 201.061 53.44C200.901 53.44 200.581 53.56 200.421 53.56C200.301 53.56 200.141 53.6 199.981 53.6C199.781 53.64 199.421 53.6 199.261 53.72C198.901 53.88 198.301 54.36 198.141 54.36C198.021 54.36 197.981 54.24 197.901 54.2C197.741 54.2 197.501 54.12 197.261 54.12C197.221 54 196.941 53.88 196.821 53.72C196.741 53.64 196.701 53.36 196.701 53.2C196.701 53.08 196.781 52.76 196.821 52.6C196.861 52.56 196.981 52.52 197.021 52.44C197.101 52.36 197.101 52.2 197.101 52.12C197.941 51.72 198.861 51.2 199.781 50.76C199.981 50.64 200.261 50.64 200.461 50.52C201.021 50.24 201.621 49.88 202.141 49.44C202.861 48.84 203.661 48.48 204.421 47.92C204.981 47.48 205.981 46.36 206.781 45.52V45.48C206.101 45.68 205.421 45.84 204.821 46.16C204.661 46.28 204.301 46.88 203.861 47.16C203.541 47.36 203.061 47.48 202.661 47.6C202.461 47.68 201.941 48.08 201.781 48.08C201.661 48.08 201.621 48 201.541 47.96C201.341 47.84 200.981 47.92 200.741 47.8C200.581 47.68 200.061 47.08 199.861 46.72C199.821 46.68 199.821 46.6 199.821 46.44C199.821 46.24 199.981 45.72 200.101 45.72C200.261 45.72 200.181 45.76 200.301 45.76C200.581 45.76 201.501 45.16 201.781 45C202.061 44.84 202.421 44.6 202.821 44.36C203.901 43.76 204.981 43.24 206.061 43C206.461 42.88 206.941 42.88 207.421 42.72C207.621 42.68 210.181 41.84 211.021 41.84C211.181 41.84 211.821 41.8 212.141 41.92C212.781 42.16 213.981 42.36 214.221 42.88C214.461 43.36 214.701 44.36 214.701 44.52C214.701 44.88 213.461 45.44 213.261 45.44C213.221 45.52 213.101 45.72 212.981 45.8C212.581 45.8 212.341 45.96 211.901 46.12C211.781 46.16 211.701 46.36 211.581 46.44C210.341 47.12 209.621 48.8 208.821 49.32C208.821 49.4 208.861 49.4 208.941 49.44C210.501 49.52 212.421 50.8 212.701 51.6C212.741 51.76 212.701 52.16 212.781 52.48C213.181 52.56 213.581 52.56 214.381 52.52C215.781 52.44 217.061 52.64 218.341 52.88C219.461 53.08 220.701 53.16 221.861 53.44C222.101 53.48 222.341 53.64 222.581 53.72C222.901 53.84 223.301 53.84 223.581 54.16C223.661 54.28 223.701 54.52 223.701 54.72Z" fill="black"/>
<path d="M27.3176 34.4468C27.2889 34.4912 27.2604 34.5354 27.2326 34.579C24.6917 33.0383 22.377 30.5287 20.4707 26.616C19.504 24.6318 19.3817 22.2391 19.5558 20.2413C19.6424 19.2486 19.8007 18.3686 19.9555 17.708C20.033 17.3777 20.1088 17.1053 20.1731 16.9035C20.1929 16.8413 20.2112 16.787 20.2278 16.7406C20.3759 16.7514 20.5973 16.7915 20.8841 16.8738C21.4861 17.0464 22.3084 17.385 23.2092 17.9201C25.0104 18.99 27.0834 20.8196 28.3411 23.6089C29.7734 26.7853 29.5549 29.3545 28.9342 31.2544C28.6218 32.2108 28.2044 33.006 27.83 33.6323C27.6603 33.9161 27.5007 34.1631 27.3614 34.3789C27.3466 34.4019 27.3319 34.4245 27.3176 34.4468Z" fill="#F6BB2B" stroke="#F6BB2B"/>
<path d="M24.7859 38.6704C24.8161 38.6098 24.846 38.55 24.8755 38.4918C22.2414 36.955 18.7653 35.8703 14.6454 36.5676C12.4697 36.9359 10.2155 37.8244 8.50344 38.724C7.64806 39.1734 6.94206 39.6183 6.45722 39.9914C6.21331 40.1791 6.03868 40.3385 5.93023 40.4621C5.89872 40.498 5.87601 40.5273 5.86009 40.5499C5.8808 40.6004 5.91509 40.6699 5.96676 40.758C6.07659 40.9452 6.24799 41.1877 6.4817 41.4659C6.94821 42.0211 7.64104 42.6925 8.52849 43.3212C10.3035 44.5787 12.8228 45.6426 15.845 45.3126C19.3128 44.934 21.4442 43.3855 22.7975 41.8191C23.4783 41.0312 23.9666 40.2331 24.3284 39.5634C24.4923 39.26 24.6291 38.9853 24.7483 38.7458C24.7611 38.7202 24.7736 38.6951 24.7859 38.6704ZM5.83021 40.5995C5.83026 40.5994 5.83073 40.5984 5.83145 40.5965C5.83052 40.5985 5.83015 40.5995 5.83021 40.5995Z" fill="#F6BB2B" stroke="#F6BB2B"/>
<path d="M34.2586 47.0855C34.2884 47.0257 34.3179 46.9667 34.347 46.9092C31.6716 45.3846 27.7131 44.3742 24.1181 44.9827C22.2526 45.2985 19.906 46.418 18.0572 47.5753C17.1374 48.1512 16.3638 48.7221 15.8526 49.1852C15.594 49.4195 15.422 49.6088 15.3297 49.7439C15.3248 49.7511 15.3202 49.7579 15.3161 49.7643C15.4411 49.9403 15.6924 50.2452 16.0799 50.6193C16.5699 51.0924 17.2533 51.6523 18.1161 52.1694C19.8394 53.202 22.2711 54.0603 25.3177 53.7277C28.7855 53.3491 30.9169 51.8006 32.2701 50.2342C32.9509 49.4463 33.4392 48.6482 33.8011 47.9785C33.965 47.6751 34.1018 47.4004 34.221 47.1609C34.2337 47.1353 34.2463 47.1102 34.2586 47.0855Z" fill="#F6BB2B" stroke="#F6BB2B"/>
<path d="M43.4355 56.1768C43.4853 56.0801 43.5321 55.9894 43.576 55.9054C40.9026 54.438 36.6636 53.7821 33.0321 54.3968C31.1667 54.7126 28.8201 55.8323 26.9713 56.9898C26.0514 57.5657 25.2779 58.1366 24.7666 58.5997C24.508 58.834 24.336 59.0233 24.2437 59.1583C24.2388 59.1654 24.2344 59.1721 24.2303 59.1784C24.3554 59.3544 24.6066 59.6592 24.9939 60.0331C25.4839 60.5061 26.1673 61.0661 27.0302 61.5832C28.7535 62.6159 31.1852 63.4745 34.2318 63.1419C40.1809 62.4923 42.4334 58.1213 43.4355 56.1768Z" fill="#F6BB2B" stroke="#F6BB2B"/>
<path d="M37.2359 43.3153C37.1975 43.3513 37.1594 43.3871 37.122 43.4225C34.9713 41.2431 32.9371 37.7066 32.4929 34.1038C32.2621 32.2324 32.6485 29.6979 33.2036 27.6298C33.4797 26.6008 33.791 25.7126 34.073 25.103C34.2116 24.8035 34.333 24.5935 34.4275 24.4691C34.6229 24.548 34.9534 24.7058 35.3762 24.9638C35.9475 25.3125 36.6567 25.8256 37.3781 26.5227C38.8193 27.9151 40.3036 30.0347 40.8497 33.0465C41.4714 36.475 40.6382 38.9151 39.5765 40.6086C39.0421 41.461 38.4448 42.1317 37.93 42.6488C37.6968 42.8832 37.4823 43.0843 37.2949 43.2599C37.2749 43.2787 37.2552 43.2971 37.2359 43.3153Z" fill="#F6BB2B" stroke="#F6BB2B"/>
<path d="M46.3566 52.7849C46.3134 52.815 46.2705 52.8449 46.2285 52.8745C44.4148 50.4076 42.9122 46.6146 42.9926 42.9854C43.0343 41.0998 43.7793 38.646 44.6253 36.6793C45.0462 35.7007 45.4819 34.8669 45.8492 34.305C46.0309 34.0271 46.1824 33.8368 46.2942 33.7284C46.4774 33.8345 46.785 34.0397 47.1704 34.3594C47.6859 34.7871 48.3132 35.3969 48.9256 36.1904C50.149 37.7753 51.3087 40.0857 51.4145 43.1452C51.5349 46.6274 50.3583 48.9217 49.0633 50.4443C48.4115 51.2106 47.7236 51.7881 47.1396 52.2256C46.875 52.4238 46.6337 52.5918 46.4229 52.7386C46.4005 52.7543 46.3784 52.7697 46.3566 52.7849Z" fill="#F6BB2B" stroke="#F6BB2B"/>
<path d="M31.3385 40.3795C33.7016 42.3256 40.1792 48.4957 47.0085 56.8689C42.2727 51.6567 38.0756 47.7031 36.4825 46.2024C36.3807 46.1065 36.2896 46.0206 36.2096 45.9451C31.4552 41.4548 27.0971 38.0211 23.8613 35.6439C22.2433 34.4552 20.9062 33.5308 19.9417 32.8714C19.7699 32.7539 19.6106 32.6453 19.464 32.5453C19.1975 32.3637 18.9727 32.2104 18.7901 32.0839C18.7233 32.0376 18.6632 31.9956 18.6096 31.9577C18.6105 31.9571 18.6114 31.9565 18.6123 31.956C18.6675 31.9212 18.7845 31.8808 19.022 31.9065C19.5164 31.9599 20.2922 32.2716 21.4041 32.9257C23.6025 34.2188 26.8637 36.6945 31.3385 40.3795Z" fill="#60AF22" stroke="#60AF22"/>
<path d="M50.8766 31.02C45.4856 18.2491 41.4971 10.5504 38.8237 5.9753C37.7353 4.11276 36.865 2.76788 36.2066 1.80919C39.3467 4.10702 42.4953 7.71297 45.3922 12.0174C48.9457 17.2975 52.0858 23.5766 54.3394 29.6439C57.744 38.8103 60.2375 50.2228 61.8802 59.7513C62.923 65.8002 63.6189 71.0661 63.9887 74.4993C62.4354 69.6847 60.8945 63.8936 59.3139 57.9533C59.005 56.7925 58.6947 55.626 58.3824 54.46C56.0397 45.7126 53.5889 36.989 50.8766 31.02Z" fill="#60AF22" stroke="#60AF22"/>
<path d="M67.8432 17.5202C67.7684 17.5767 67.6977 17.6278 67.6306 17.6754C66.9234 16.1802 66.4205 13.9706 66.5689 11.9888C66.6485 10.9249 67.0927 9.56337 67.5667 8.46584C67.8018 7.92162 68.0352 7.46318 68.2191 7.15855C68.2297 7.1411 68.2399 7.12443 68.2498 7.1085C68.8329 7.64011 70.0714 9.16678 70.0712 12.4949C70.071 14.5663 69.4417 15.8247 68.8004 16.6105C68.4745 17.0097 68.1343 17.3006 67.8432 17.5202ZM68.4334 6.85054C68.4334 6.85058 68.4327 6.85125 68.4314 6.85246C68.4327 6.85111 68.4334 6.8505 68.4334 6.85054Z" fill="#F6BB2B" stroke="#F6BB2B"/>
<path d="M60.1484 20.4793C62.109 20.9077 63.8285 20.0866 64.6389 19.5851C63.6883 18.2677 62.3545 16.8858 60.8572 16.4199C60.0136 16.1574 58.8267 16.1386 57.846 16.2673C57.3584 16.3313 56.948 16.4285 56.6755 16.5358C56.6137 16.5602 56.564 16.5831 56.5252 16.6035C56.6242 16.9714 56.8702 17.6795 57.3323 18.3996C57.9066 19.2944 58.7984 20.1843 60.1484 20.4793ZM56.4124 16.6797C56.4128 16.6798 56.4157 16.677 56.4203 16.6715C56.4143 16.677 56.412 16.6797 56.4124 16.6797Z" fill="#F6BB2B" stroke="#F6BB2B"/>
<path d="M65.341 27.1371C66.0571 26.828 66.672 26.4344 67.0666 26.1609C66.235 24.8031 64.8539 23.4437 63.3314 22.9047C62.5018 22.6109 61.2898 22.5701 60.2682 22.6919C59.7614 22.7523 59.328 22.8497 59.0336 22.9613C58.9394 22.997 58.8689 23.0307 58.8186 23.0595C58.879 23.3873 59.0663 24.0563 59.4888 24.8096C59.9976 25.7171 60.8309 26.7149 62.1491 27.3485C63.1237 27.8169 64.2909 27.5904 65.341 27.1371ZM58.7287 23.1247C58.7291 23.1248 58.7325 23.1217 58.7376 23.1154C58.7308 23.1215 58.7283 23.1247 58.7287 23.1247Z" fill="#F6BB2B" stroke="#F6BB2B"/>
<path d="M63.9954 33.7865C66.3227 34.5213 68.0981 33.6205 68.9455 33.1011C68.1838 31.7135 66.8823 30.2799 65.4055 29.6306C64.5997 29.2763 63.4076 29.1374 62.3976 29.1719C61.896 29.189 61.466 29.2481 61.1726 29.3319C61.0878 29.3562 61.0226 29.3803 60.9745 29.4017C61.0116 29.7851 61.146 30.5763 61.5097 31.3967C61.9461 32.3809 62.6968 33.3765 63.9954 33.7865ZM60.8734 29.4608C60.8738 29.4608 60.8773 29.4582 60.8828 29.4525C60.8757 29.4579 60.873 29.4607 60.8734 29.4608Z" fill="#F6BB2B" stroke="#F6BB2B"/>
<path d="M73.684 20.1384C73.0648 22.784 71.3115 23.8322 70.3293 24.3123C69.941 22.6665 69.8642 20.4766 70.3932 18.6211C70.6822 17.6074 71.3428 16.4613 71.9958 15.5633C72.3201 15.1174 72.6318 14.7472 72.879 14.4971C72.9335 14.4419 72.9829 14.3945 73.0268 14.3547C73.054 14.3975 73.0836 14.4473 73.115 14.5043C73.2775 14.7994 73.4636 15.2404 73.616 15.7969C73.9205 16.9083 74.081 18.4424 73.684 20.1384Z" fill="#F6BB2B" stroke="#F6BB2B"/>
<path d="M75.7531 27.9387C75.115 29.9548 73.3556 30.9551 72.3815 31.3943C72.0723 29.7665 71.9785 27.9646 72.6229 26.2314C72.9834 25.2617 73.7555 24.1506 74.4874 23.3131C74.8513 22.8967 75.19 22.5655 75.4432 22.3634C75.4547 22.3542 75.4659 22.3454 75.4768 22.3371C75.5078 22.4006 75.541 22.4725 75.5754 22.5522C75.7116 22.8682 75.8631 23.301 75.9756 23.8281C76.2001 24.8802 76.2694 26.3069 75.7531 27.9387ZM75.7104 22.1853C75.7104 22.1854 75.7092 22.1858 75.707 22.1865C75.7093 22.1856 75.7104 22.1853 75.7104 22.1853Z" fill="#F6BB2B" stroke="#F6BB2B"/>
<path d="M68.5859 23.8328C69.0954 25.3129 72.8319 36.213 73.4708 51.2886C72.563 41.5788 71.0592 33.8158 69.456 28.8066C67.3434 22.2052 65.8054 18.6256 64.8386 16.5698C64.5975 16.0572 64.4011 15.6575 64.2413 15.3322C64.0714 14.9865 63.9429 14.725 63.846 14.5014C63.7748 14.3371 63.739 14.2316 63.7221 14.1634C63.7374 14.163 63.7526 14.1643 63.768 14.1669C63.841 14.1793 63.9557 14.2286 64.1179 14.3663C64.4501 14.6481 64.8649 15.2004 65.3471 16.0543C66.3025 17.7465 67.4119 20.4223 68.5859 23.8328Z" fill="#60AF22" stroke="#60AF22"/>
<path d="M18.6314 32.3352C18.4913 32.4423 18.2681 32.572 17.94 32.7065C17.4495 32.9075 16.7915 33.0924 15.9975 33.229C14.4111 33.5018 12.3247 33.5741 10.0362 33.2249C7.83933 32.8897 5.43813 31.3344 3.6797 29.7291C2.80627 28.9317 2.11957 28.1474 1.71446 27.5367C1.50873 27.2265 1.39564 26.9907 1.3538 26.8383C1.35212 26.8322 1.3506 26.8265 1.34922 26.821C1.82473 26.5192 2.98168 26.0185 4.61966 25.7124C6.37366 25.3847 8.63418 25.2894 11.1147 25.882C16.5821 27.1883 18.1551 30.9402 18.6314 32.3352ZM1.33661 26.7434C1.33702 26.7437 1.33743 26.7482 1.33662 26.7557C1.3358 26.7468 1.3362 26.743 1.33661 26.7434Z" fill="#F6BB2B" stroke="#F6BB2B"/>
<path d="M63.8698 14.4305C63.8131 14.4328 63.745 14.4305 63.6652 14.422C63.4356 14.3973 63.1381 14.3231 62.7924 14.1874C62.102 13.9165 61.2573 13.4151 60.4349 12.6483C59.6824 11.9466 59.0811 10.5795 58.7598 9.30939C58.6014 8.6831 58.523 8.12583 58.5203 7.73809C58.5194 7.60852 58.5271 7.51426 58.5371 7.45031C59.2168 7.40056 60.9266 7.7387 62.4947 9.49408C64.2064 11.4101 64.0278 13.5134 63.8698 14.4305Z" fill="#F6BB2B" stroke="#F6BB2B"/>
</svg>
